# xmcd CD database file
#
# Track frame offsets:
#	182
#	22790
#	49935
#	73032
#	92477
#	122692
#	161720
#	181437
#	204260
#
# Disc length: 3125 seconds
#
# Revision: 6
# Processed by: cddbd v1.5.2PL0 Copyright (c) Steve Scherf et al.
# Submitted via: CDex 1.51
#
DISCID=700c3309
DTITLE=Joni Mitchell - Hejira [Remastered HDCD 1997]
DYEAR=1976
DGENRE=Folk Jazz
TTITLE0=Coyote
TTITLE1=Amelia
TTITLE2=Furry Sings The Blues
TTITLE3=A Strange Boy
TTITLE4=Hejira
TTITLE5=Song for Sharon
TTITLE6=Black Crow
TTITLE7=Blue Motel Room
TTITLE8=Refuge of the Roads
EXTD=Jaco Pastorius on Fretless Bass YEAR: 1976
EXTT0=
EXTT1=
EXTT2=
EXTT3=
EXTT4=
EXTT5=
EXTT6=
EXTT7=
EXTT8=
PLAYORDER=
